<?xml version="1.0" encoding="UTF-8"?>
<!DOCTYPE svg PUBLIC "-//W3C//DTD SVG 1.1//EN" "http://www.w3.org/Graphics/SVG/1.1/DTD/svg11.dtd">
<svg version="1.1" xmlns="http://www.w3.org/2000/svg" xmlns:xlink="http://www.w3.org/1999/xlink" x="0" y="0" width="1024" height="1024" viewBox="0, 0, 1024, 1024">
  <defs>
    <linearGradient id="Gradient_1" gradientUnits="userSpaceOnUse" x1="-512.326" y1="940.36" x2="-512.326" y2="82.988" gradientTransform="matrix(-0.001, -1, 1, -0.001, 0, 0)">
      <stop offset="0.019" stop-color="#F2595C"/>
      <stop offset="1" stop-color="#F73769"/>
    </linearGradient>
    <linearGradient id="Gradient_2" gradientUnits="userSpaceOnUse" x1="-512.326" y1="940.36" x2="-512.326" y2="82.988" gradientTransform="matrix(-0.001, -1, 1, -0.001, 0, 0)">
      <stop offset="0.019" stop-color="#F2595C"/>
      <stop offset="1" stop-color="#F73769"/>
    </linearGradient>
    <linearGradient id="Gradient_3" gradientUnits="userSpaceOnUse" x1="-512.326" y1="940.36" x2="-512.326" y2="82.988" gradientTransform="matrix(-0.001, -1, 1, -0.001, 0, 0)">
      <stop offset="0.019" stop-color="#F2595C"/>
      <stop offset="1" stop-color="#F73769"/>
    </linearGradient>
  </defs>
  <g id="Layer_1">
    <path d="M940.849,767.727 L512.326,1024 L83.477,768.273 L83.151,256.273 L511.674,0 L940.523,255.727 z" fill="#f44d61"/>
  </g>
  <g transform="matrix(15.625 0 0 15.625 510 510)" id="651159">
  <g style="" vector-effect="non-scaling-stroke">
      <g transform="matrix(1 0 0 1 -0.2231 0.5003)" id="Fill-1">
  <path style="stroke: none; stroke-width: 1; stroke-dasharray: none; stroke-linecap: butt; stroke-dashoffset: 0; stroke-linejoin: miter; stroke-miterlimit: 4; is-custom-font: none; font-file-url: none; fill: rgb(47,187,244); fill-rule: evenodd; opacity: 1;" transform=" translate(-13.7769, -14.5003)" d="M 10.0399 23.8803 L 5.6269 6.3403 L 5.6269 25.3453 C 5.6269 26.3963 5.3919 27.1853 4.9229 27.7113 C 4.4529 28.2373 3.8299 28.5003 3.0539 28.5003 C 2.3029 28.5003 1.6889 28.2403 1.2139 27.7203 C 0.7379 27.2013 0.4999 26.4093 0.4999 25.3453 L 0.4999 3.5613 C 0.4999 2.3593 0.8129 1.5483 1.4389 1.1293 C 2.0649 0.7093 2.9099 0.5003 3.9739 0.5003 L 5.7019 0.5003 C 6.7409 0.5003 7.4949 0.5943 7.9649 0.7813 C 8.4339 0.9693 8.7819 1.3073 9.0069 1.7953 C 9.2319 2.2843 9.4889 3.0793 9.7769 4.1803 L 13.7769 19.2603 L 17.7769 4.1803 C 18.0649 3.0793 18.3219 2.2843 18.5469 1.7953 C 18.7719 1.3073 19.1199 0.9693 19.5889 0.7813 C 20.0589 0.5943 20.8129 0.5003 21.8519 0.5003 L 23.5799 0.5003 C 24.6439 0.5003 25.4889 0.7093 26.1149 1.1293 C 26.7409 1.5483 27.0539 2.3593 27.0539 3.5613 L 27.0539 25.3453 C 27.0539 26.3963 26.8189 27.1853 26.3499 27.7113 C 25.8799 28.2373 25.2509 28.5003 24.4629 28.5003 C 23.7239 28.5003 23.1169 28.2373 22.6409 27.7113 C 22.1649 27.1853 21.9269 26.3963 21.9269 25.3453 L 21.9269 6.3403 L 17.5139 23.8803 C 17.2259 25.0193 16.9909 25.8553 16.8099 26.3873 C 16.6279 26.9193 16.2939 27.4043 15.8049 27.8423 C 15.3169 28.2813 14.6409 28.5003 13.7769 28.5003 C 13.1259 28.5003 12.5749 28.3593 12.1249 28.0773 C 11.6739 27.7953 11.3229 27.4363 11.0729 26.9973 C 10.8219 26.5593 10.6249 26.0743 10.4809 25.5423 C 10.3369 25.0103 10.1899 24.4563 10.0399 23.8803" stroke-linecap="round"/>
  </g>
      <g transform="matrix(1 0 0 1 -0.2231 0.5003)" id="Stroke-3">
  <path style="stroke: rgb(9,41,51); stroke-width: 1; stroke-dasharray: none; stroke-linecap: round; stroke-dashoffset: 0; stroke-linejoin: round; stroke-miterlimit: 4; is-custom-font: none; font-file-url: none; fill: none; fill-rule: evenodd; opacity: 1;" transform=" translate(-13.7769, -14.5003)" d="M 10.0399 23.8803 L 5.6269 6.3403 L 5.6269 25.3453 C 5.6269 26.3963 5.3919 27.1853 4.9229 27.7113 C 4.4529 28.2373 3.8299 28.5003 3.0539 28.5003 C 2.3029 28.5003 1.6889 28.2403 1.2139 27.7203 C 0.7379 27.2013 0.4999 26.4093 0.4999 25.3453 L 0.4999 3.5613 C 0.4999 2.3593 0.8129 1.5483 1.4389 1.1293 C 2.0649 0.7093 2.9099 0.5003 3.9739 0.5003 L 5.7019 0.5003 C 6.7409 0.5003 7.4949 0.5943 7.9649 0.7813 C 8.4339 0.9693 8.7819 1.3073 9.0069 1.7953 C 9.2319 2.2843 9.4889 3.0793 9.7769 4.1803 L 13.7769 19.2603 L 17.7769 4.1803 C 18.0649 3.0793 18.3219 2.2843 18.5469 1.7953 C 18.7719 1.3073 19.1199 0.9693 19.5889 0.7813 C 20.0589 0.5943 20.8129 0.5003 21.8519 0.5003 L 23.5799 0.5003 C 24.6439 0.5003 25.4889 0.7093 26.1149 1.1293 C 26.7409 1.5483 27.0539 2.3593 27.0539 3.5613 L 27.0539 25.3453 C 27.0539 26.3963 26.8189 27.1853 26.3499 27.7113 C 25.8799 28.2373 25.2509 28.5003 24.4629 28.5003 C 23.7239 28.5003 23.1169 28.2373 22.6409 27.7113 C 22.1649 27.1853 21.9269 26.3963 21.9269 25.3453 L 21.9269 6.3403 L 17.5139 23.8803 C 17.2259 25.0193 16.9909 25.8553 16.8099 26.3873 C 16.6279 26.9193 16.2939 27.4043 15.8049 27.8423 C 15.3169 28.2813 14.6409 28.5003 13.7769 28.5003 C 13.1259 28.5003 12.5749 28.3593 12.1249 28.0773 C 11.6739 27.7953 11.3229 27.4363 11.0729 26.9973 C 10.8219 26.5593 10.6249 26.0743 10.4809 25.5423 C 10.3369 25.0103 10.1899 24.4563 10.0399 23.8803 L 10.0399 23.8803 Z" stroke-linecap="round"/>
  </g>
      <g transform="matrix(1 0 0 1 -0.2231 9.6468)" id="Fill-5">
  <path style="stroke: none; stroke-width: 1; stroke-dasharray: none; stroke-linecap: butt; stroke-dashoffset: 0; stroke-linejoin: miter; stroke-miterlimit: 4; is-custom-font: none; font-file-url: none; fill: rgb(51,46,9); fill-rule: evenodd; opacity: 0.2038;" transform=" translate(-13.7769, -23.6468)" d="M 17.0289 22.7578 C 16.7449 23.8818 16.5119 24.7128 16.3369 25.2268 C 16.1839 25.6738 15.8929 26.0918 15.4709 26.4708 C 15.0749 26.8268 14.5199 26.9998 13.7769 26.9998 C 13.2229 26.9998 12.7569 26.8838 12.3899 26.6538 C 12.0109 26.4178 11.7149 26.1138 11.5079 25.7498 C 11.2799 25.3538 11.0969 24.9038 10.9639 24.4108 C 10.8209 23.8808 10.6739 23.3278 10.5229 22.7538 L 9.4409 19.4528 L 10.5229 23.7538 C 10.6739 24.3278 10.8209 24.8808 10.9639 25.4108 C 11.0969 25.9038 11.2799 26.3538 11.5079 26.7498 C 11.7149 27.1138 12.0109 27.4178 12.3899 27.6538 C 12.7569 27.8838 13.2229 27.9998 13.7769 27.9998 C 14.5199 27.9998 15.0749 27.8268 15.4709 27.4708 C 15.8929 27.0918 16.1839 26.6738 16.3369 26.2268 C 16.5119 25.7128 16.7449 24.8818 17.0289 23.7578 L 18.1519 19.2938 L 17.0289 22.7578 Z M 25.9769 26.3778 C 25.6039 26.7968 25.1079 26.9998 24.4629 26.9998 C 23.8659 26.9998 23.3919 26.7958 23.0119 26.3758 C 22.6239 25.9468 22.4269 25.2648 22.4269 24.3448 L 22.4269 25.3448 C 22.4269 26.2648 22.6239 26.9468 23.0119 27.3758 C 23.3919 27.7958 23.8659 27.9998 24.4629 27.9998 C 25.1079 27.9998 25.6039 27.7968 25.9769 27.3778 C 26.3599 26.9488 26.5539 26.2648 26.5539 25.3448 L 26.5539 24.3448 C 26.5539 25.2648 26.3599 25.9488 25.9769 26.3778 L 25.9769 26.3778 Z M 3.0539 26.9998 C 2.4439 26.9998 1.9629 26.7978 1.5829 26.3828 C 1.1959 25.9608 0.9999 25.2758 0.9999 24.3448 L 0.9999 25.3448 C 0.9999 26.2758 1.1959 26.9608 1.5829 27.3828 C 1.9629 27.7978 2.4439 27.9998 3.0539 27.9998 C 3.6869 27.9998 4.1759 27.7968 4.5499 27.3778 C 4.9319 26.9488 5.1269 26.2658 5.1269 25.3448 L 5.1269 24.3448 C 5.1269 25.2658 4.9319 25.9488 4.5499 26.3778 C 4.1759 26.7968 3.6869 26.9998 3.0539 26.9998 L 3.0539 26.9998 Z" stroke-linecap="round"/>
  </g>
      <g transform="matrix(1 0 0 1 4.4098 -5.7297)" id="Stroke-7">
  <path style="stroke: rgb(255,255,255); stroke-width: 1; stroke-dasharray: 1 2 6 2 3 1 2 6 2 3; stroke-linecap: round; stroke-dashoffset: 0; stroke-linejoin: round; stroke-miterlimit: 4; is-custom-font: none; font-file-url: none; fill: none; fill-rule: evenodd; opacity: 1;" transform=" translate(-18.4098, -8.2703)" d="M 19.2653 5.1868 L 17.5543 11.3538" stroke-linecap="round"/>
  </g>
  </g>
  </g>
</svg>
